<svg xmlns="http://www.w3.org/2000/svg" style="display: none;">

  <symbol id="icon-email" viewBox="0 0 24 24">
    <path d="M2 4h20v16H2V4zm2 2v12h16V6l-8 5-8-5zm8 7L4 6h16l-8 5z"/>
  </symbol>

  <symbol id="icon-github" viewBox="0 0 24 24">
    <path fill-rule="evenodd" clip-rule="evenodd" d="M12 2C6.48 2 2 6.58 2 12.26c0 4.48 2.87 8.28 6.84 9.63.5.09.68-.22.68-.48 0-.24-.01-.87-.01-1.7-2.78.62-3.37-1.36-3.37-1.36-.45-1.17-1.11-1.48-1.11-1.48-.91-.64.07-.63.07-.63 1 .07 1.53 1.05 1.53 1.05.89 1.56 2.34 1.11 2.91.85.09-.66.35-1.11.63-1.37-2.22-.26-4.56-1.14-4.56-5.07 0-1.12.39-2.03 1.03-2.75-.1-.26-.45-1.3.1-2.71 0 0 .84-.28 2.75 1.05A9.38 9.38 0 0 1 12 6.84c.85.004 1.71.12 2.51.34 1.91-1.33 2.75-1.05 2.75-1.05.55 1.41.2 2.45.1 2.71.64.72 1.03 1.63 1.03 2.75 0 3.94-2.34 4.81-4.57 5.07.36.32.68.94.68 1.9 0 1.37-.01 2.47-.01 2.81 0 .27.18.58.69.48C19.13 20.54 22 16.74 22 12.26 22 6.58 17.52 2 12 2z"/>
  </symbol>

  <symbol id="icon-linkedin" viewBox="0 0 34 34">
    <rect width="34" height="34" rx="4" fill="#0A66C2"/>
    <path d="M8 12H12V26H8V12ZM10 8C8.9 8 8 8.9 8 10C8 11.1 8.9 12 10 12C11.1 12 12 11.1 12 10C12 8.9 11.1 8 10 8Z" fill="white"/>
    <path d="M14 12H18V14H18.1C18.7 13 20.1 12 22.1 12C26.4 12 27 14.6 27 18.2V26H23V19.2C23 17.4 22.7 16 21 16C19.3 16 18.9 17.3 18.9 19.1V26H15V12H14Z" fill="white"/>
  </symbol>

  <symbol id="icon-pointer-click" viewBox="0 0 24 24">
  <path d="M15 15l-2 5L9 9l11 4-5 2zm0 0l5 5M7.188 2.239l.777 2.897M5.136 7.965l-2.898-.777M13.95 4.05l-2.122 2.122m-5.657 5.656l-2.12 2.122" stroke-linecap="round" stroke-linejoin="round" stroke-width="2" fill="none" stroke="currentColor"/>
  </symbol>

  <symbol id="icon-checkmark-circle" viewBox="0 0 96 96">
  <g fill="currentColor">
    <path d="M58.3945,32.1563,42.9961,50.625l-5.3906-6.4629a5.995,5.995,0,1,0-9.211,7.6758l9.9961,12a5.9914,5.9914,0,0,0,9.211.0059l20.0039-24a5.9988,5.9988,0,1,0-9.211-7.6875Z"/>
    <path d="M48,0A48,48,0,1,0,96,48,48.0512,48.0512,0,0,0,48,0Zm0,84A36,36,0,1,1,84,48,36.0393,36.0393,0,0,1,48,84Z"/>
  </g>
  </symbol>

</svg>